# xmcd
#
# Track frame offsets:
#	150
#	16442
#	35062
#	53632
#	77100
#	92337
#	119217
#	135165
#	149225
#	163500
#	184085
#	196992
#	220367
#	240982
#
# Disc length: 3439 seconds
#
# Revision: 1
# Processed by: cddbd v1.5.1PL0 Copyright (c) Steve Scherf et al.
# Submitted via: CDex 1.50Beta5
#
DISCID=c40d6d0e
DTITLE=矢沢永吉 - E.YAZAWA/全集 Disc 4
DYEAR=1985
DGENRE=Pop
TTITLE0=黒く塗りつぶせ
TTITLE1=あの娘と暮らせない
TTITLE2=ゴールドラッシュ
TTITLE3=苦い涙
TTITLE4=親友
TTITLE5=長い旅
TTITLE6=雨のハイウェイ
TTITLE7=ライフ・イズ・ベイン
TTITLE8=ウィスキー・コーク
TTITLE9=燃えるサンセット
TTITLE10=恋の列車はリバプール発
TTITLE11=サブウェイ特急
TTITLE12=古いラブ・レター
TTITLE13=アイ・ラブ・ユー,OK
EXTD=
EXTT0=
EXTT1=
EXTT2=
EXTT3=
EXTT4=
EXTT5=
EXTT6=
EXTT7=
EXTT8=
EXTT9=
EXTT10=
EXTT11=
EXTT12=
EXTT13=
PLAYORDER=
